<svg width="10" height="10" viewBox="0 0 10 10" version="1.1" xmlns="http://www.w3.org/2000/svg" xmlns:xlink="http://www.w3.org/1999/xlink">
<title>accueil</title>
<desc>Created using Figma</desc>
<g id="Canvas" transform="translate(74 72)">
<clipPath id="clip-0" clip-rule="evenodd">
<path d="M -74 -72L -64 -72L -64 -62L -74 -62L -74 -72Z" fill="#FFFFFF"/>
</clipPath>
<g id="accueil" clip-path="url(#clip-0)">
<g id="Group">
<g id="Vector">
<use xlink:href="#path0_stroke" transform="translate(-70 -71)"/>
</g>
<g id="Group">
<g id="Vector">
<use xlink:href="#path1_stroke" transform="translate(-73 -68)" fill="#FFFFFF"/>
</g>
<g id="Vector">
<use xlink:href="#path0_stroke" transform="translate(-73 -68)"/>
</g>
</g>
</g>
</g>
</g>
<defs>
<path id="path0_stroke" d="M 0 0L 0 -0.5L -0.5 -0.5L -0.5 0L 0 0ZM 5 0L 5.5 0L 5.5 -0.5L 5 -0.5L 5 0ZM 5 5L 5 5.5L 5.5 5.5L 5.5 5L 5 5ZM 0 5L -0.5 5L -0.5 5.5L 0 5.5L 0 5ZM 0 0.5L 5 0.5L 5 -0.5L 0 -0.5L 0 0.5ZM 4.5 0L 4.5 5L 5.5 5L 5.5 0L 4.5 0ZM 5 4.5L 0 4.5L 0 5.5L 5 5.5L 5 4.5ZM 0.5 5L 0.5 0L -0.5 0L -0.5 5L 0.5 5Z"/>
<path id="path1_stroke" d="M 0 0L 0 -1L -1 -1L -1 0L 0 0ZM 5 0L 6 0L 6 -1L 5 -1L 5 0ZM 5 5L 5 6L 6 6L 6 5L 5 5ZM 0 5L -1 5L -1 6L 0 6L 0 5ZM 0 1L 5 1L 5 -1L 0 -1L 0 1ZM 4 0L 4 5L 6 5L 6 0L 4 0ZM 5 4L 0 4L 0 6L 5 6L 5 4ZM 1 5L 1 0L -1 0L -1 5L 1 5Z"/>
</defs>
</svg>
