<svg width="17" height="17" viewBox="0 0 17 17" version="1.1" xmlns="http://www.w3.org/2000/svg" xmlns:xlink="http://www.w3.org/1999/xlink">
<title>Favicon</title>
<desc>Created using Figma</desc>
<g id="Canvas" transform="translate(823 -7)">
<clipPath id="clip-0" clip-rule="evenodd">
<path d="M -823 7L -806 7L -806 24L -823 24L -823 7Z" fill="#FFFFFF"/>
</clipPath>
<g id="Favicon" clip-path="url(#clip-0)">
<g id="M">
<use xlink:href="#path0_fill" transform="translate(-821 10)"/>
</g>
<g id="Rectangle">
<use xlink:href="#path1_fill" transform="translate(-821 20)"/>
</g>
<g id="Rectangle 20">
<mask id="mask0_outline_ins">
<use xlink:href="#path2_fill" fill="white" transform="translate(-823 7)"/>
</mask>
<g mask="url(#mask0_outline_ins)">
<use xlink:href="#path3_stroke_2x" transform="translate(-823 7)"/>
</g>
</g>
</g>
</g>
<defs>
<path id="path0_fill" d="M 0 7.37335L 0.865031 7.37335L 0.865031 1.63259L 0 1.63259L 0 0L 3.82822 0L 6.57055 6.49472L 9.11656 0L 13 0L 13 1.63259L 12.135 1.63259L 12.135 7.37335L 12.9877 7.37335L 12.9877 9L 9.5092 9L 9.5092 7.37335L 10.1472 7.37335L 10.1472 2.19657L 7.36196 8.89314L 5.63804 8.89314L 2.80368 2.37467L 2.80368 7.37335L 3.49693 7.37335L 3.49693 9L 0 9L 0 7.37335Z"/>
<path id="path1_fill" d="M 0 0L 13 0L 13 1L 0 1L 0 0Z"/>
<path id="path2_fill" d="M 0 0L 17 0L 17 17L 0 17L 0 0Z"/>
<path id="path3_stroke_2x" d="M 0 0L 0 -1L -1 -1L -1 0L 0 0ZM 17 0L 18 0L 18 -1L 17 -1L 17 0ZM 17 17L 17 18L 18 18L 18 17L 17 17ZM 0 17L -1 17L -1 18L 0 18L 0 17ZM 0 1L 17 1L 17 -1L 0 -1L 0 1ZM 16 0L 16 17L 18 17L 18 0L 16 0ZM 17 16L 0 16L 0 18L 17 18L 17 16ZM 1 17L 1 0L -1 0L -1 17L 1 17Z"/>
</defs>
</svg>
