<svg width="68" height="40" viewBox="0 0 68 40" version="1.1" xmlns="http://www.w3.org/2000/svg" xmlns:xlink="http://www.w3.org/1999/xlink">
<title>identite</title>
<desc>Created using Figma</desc>
<g id="Canvas" transform="translate(719 33)">
<clipPath id="clip-0" clip-rule="evenodd">
<path d="M -719 -33L -651 -33L -651 7L -719 7L -719 -33Z" fill="#FFFFFF"/>
</clipPath>
<g id="identite" clip-path="url(#clip-0)">
<g id="Vector 2">
<use xlink:href="#path0_stroke" transform="translate(-715 -1)"/>
</g>
<g id="Malo Germond">
<use xlink:href="#path1_fill" transform="translate(-715 -31)"/>
</g>
</g>
</g>
<defs>
<path id="path0_stroke" d="M 0 0.5L 59 0.5L 59 -0.5L 0 -0.5L 0 0.5Z"/>
<path id="path1_fill" d="M 0.662109 10.3945L 1.48828 10.3945L 1.48828 4.72852L 0.662109 4.72852L 0.662109 3.11719L 4.31836 3.11719L 6.9375 9.52734L 9.36914 3.11719L 13.0781 3.11719L 13.0781 4.72852L 12.252 4.72852L 12.252 10.3945L 13.0664 10.3945L 13.0664 12L 9.74414 12L 9.74414 10.3945L 10.3535 10.3945L 10.3535 5.28516L 7.69336 11.8945L 6.04688 11.8945L 3.33984 5.46094L 3.33984 10.3945L 4.00195 10.3945L 4.00195 12L 0.662109 12L 0.662109 10.3945ZM 17.9473 11.6719C 17.8105 11.7578 17.6855 11.832 17.5723 11.8945C 17.459 11.9531 17.3457 12 17.2324 12.0352C 17.1191 12.0742 17.002 12.1016 16.8809 12.1172C 16.7598 12.1367 16.627 12.1465 16.4824 12.1465C 16.1191 12.1465 15.793 12.0977 15.5039 12C 15.2188 11.8984 14.9766 11.7617 14.7773 11.5898C 14.582 11.4141 14.4316 11.209 14.3262 10.9746C 14.2207 10.7363 14.168 10.4785 14.168 10.2012C 14.168 9.91992 14.2207 9.66016 14.3262 9.42188C 14.4355 9.18359 14.5918 8.98047 14.7949 8.8125C 14.998 8.64062 15.2461 8.50781 15.5391 8.41406C 15.8359 8.31641 16.1738 8.26758 16.5527 8.26758C 16.8301 8.26758 17.082 8.2832 17.3086 8.31445C 17.5391 8.3418 17.752 8.37695 17.9473 8.41992L 17.9473 8.23242C 17.9473 8.08008 17.918 7.94922 17.8594 7.83984C 17.8008 7.72656 17.7188 7.63477 17.6133 7.56445C 17.5078 7.49023 17.3809 7.4375 17.2324 7.40625C 17.084 7.37109 16.9219 7.35352 16.7461 7.35352C 16.3789 7.35352 16.0547 7.39062 15.7734 7.46484C 15.4961 7.53516 15.2285 7.63867 14.9707 7.77539L 14.4082 6.63867C 14.8066 6.36523 15.2227 6.15625 15.6562 6.01172C 16.0938 5.86719 16.5566 5.79492 17.0449 5.79492C 17.4238 5.79492 17.7734 5.83789 18.0938 5.92383C 18.418 6.00586 18.6953 6.14258 18.9258 6.33398C 19.1562 6.52148 19.3359 6.76758 19.4648 7.07227C 19.5977 7.37695 19.6641 7.74805 19.6641 8.18555L 19.6641 10.3945L 20.4785 10.3945L 20.4785 12L 17.9473 12L 17.9473 11.6719ZM 16.6113 10.7637C 16.8887 10.7637 17.1406 10.7188 17.3672 10.6289C 17.5938 10.5391 17.7871 10.4297 17.9473 10.3008L 17.9473 9.52734L 16.541 9.52734C 16.4512 9.52734 16.3633 9.54102 16.2773 9.56836C 16.1914 9.5957 16.1133 9.63477 16.043 9.68555C 15.9766 9.73633 15.9219 9.79883 15.8789 9.87305C 15.8398 9.94727 15.8203 10.0332 15.8203 10.1309C 15.8203 10.3105 15.8848 10.4609 16.0137 10.582C 16.1465 10.7031 16.3457 10.7637 16.6113 10.7637ZM 21.5918 2.88281L 24.3281 2.88281L 24.3281 10.3945L 25.2656 10.3945L 25.2656 12L 21.5918 12L 21.5918 10.3945L 22.5293 10.3945L 22.5293 4.48828L 21.5918 4.48828L 21.5918 2.88281ZM 26.2383 8.94141C 26.2383 8.5 26.3184 8.08594 26.4785 7.69922C 26.6387 7.3125 26.8613 6.97461 27.1465 6.68555C 27.4316 6.39648 27.7715 6.16797 28.166 6C 28.5605 5.83203 28.9941 5.74805 29.4668 5.74805C 29.9395 5.74805 30.373 5.83203 30.7676 6C 31.166 6.16797 31.5078 6.39648 31.793 6.68555C 32.0781 6.97461 32.2988 7.3125 32.4551 7.69922C 32.6152 8.08594 32.6953 8.5 32.6953 8.94141C 32.6953 9.38281 32.6172 9.79883 32.4609 10.1895C 32.3086 10.5762 32.0898 10.916 31.8047 11.209C 31.5234 11.498 31.1836 11.7266 30.7852 11.8945C 30.3906 12.0625 29.9512 12.1465 29.4668 12.1465C 28.9785 12.1465 28.5352 12.0625 28.1367 11.8945C 27.7422 11.7266 27.4043 11.498 27.123 11.209C 26.8418 10.9199 26.623 10.582 26.4668 10.1953C 26.3145 9.80469 26.2383 9.38672 26.2383 8.94141ZM 27.9902 8.94141C 27.9902 9.17188 28.0293 9.38477 28.1074 9.58008C 28.1855 9.77148 28.291 9.9375 28.4238 10.0781C 28.5605 10.2188 28.7168 10.3281 28.8926 10.4062C 29.0723 10.4844 29.2637 10.5234 29.4668 10.5234C 29.6738 10.5234 29.8652 10.4863 30.041 10.4121C 30.2207 10.334 30.375 10.2246 30.5039 10.084C 30.6367 9.94336 30.7402 9.77734 30.8145 9.58594C 30.8887 9.39062 30.9258 9.17578 30.9258 8.94141C 30.9258 8.69922 30.8887 8.48047 30.8145 8.28516C 30.7402 8.08984 30.6367 7.92383 30.5039 7.78711C 30.375 7.65039 30.2207 7.54688 30.041 7.47656C 29.8652 7.40234 29.6738 7.36719 29.4668 7.37109C 29.2637 7.36719 29.0723 7.40234 28.8926 7.47656C 28.7168 7.54688 28.5605 7.65039 28.4238 7.78711C 28.291 7.92383 28.1855 8.08984 28.1074 8.28516C 28.0293 8.48047 27.9902 8.69922 27.9902 8.94141ZM 7.10156 26L 7.10156 24.4766C 6.85938 24.9023 6.62305 25.2148 6.39258 25.4141C 6.16211 25.6133 5.90039 25.7734 5.60742 25.8945C 5.31836 26.0156 4.92969 26.0742 4.44141 26.0703C 4.19922 26.0664 3.95703 26.0391 3.71484 25.9883C 3.47266 25.9336 3.23828 25.8594 3.01172 25.7656C 2.78516 25.668 2.5625 25.5527 2.34375 25.4199C 2.12891 25.2832 1.93359 25.127 1.75781 24.9512C 1.32422 24.5137 0.986328 24.0078 0.744141 23.4336C 0.505859 22.8555 0.386719 22.2266 0.386719 21.5469C 0.386719 21.1289 0.4375 20.7246 0.539062 20.334C 0.640625 19.9434 0.783203 19.5781 0.966797 19.2383C 1.15039 18.8984 1.37109 18.5898 1.62891 18.3125C 1.89062 18.0312 2.17969 17.791 2.49609 17.5918C 2.81641 17.3926 3.16016 17.2383 3.52734 17.1289C 3.89453 17.0195 4.2793 16.9648 4.68164 16.9648C 5.14258 16.9648 5.54297 17.0273 5.88281 17.1523C 6.22266 17.2734 6.58789 17.502 6.97852 17.8379L 8.29102 17.8379L 8.29102 19.8184L 6.48047 19.8184C 6.30078 19.541 6.13086 19.3398 5.9707 19.2148C 5.81445 19.0898 5.64258 18.9863 5.45508 18.9043C 5.27148 18.8223 5.01367 18.7812 4.68164 18.7812C 4.35352 18.7812 4.04883 18.8555 3.76758 19.0039C 3.48633 19.1523 3.24219 19.3535 3.03516 19.6074C 2.83203 19.8574 2.67188 20.1543 2.55469 20.498C 2.4375 20.8379 2.37891 21.1875 2.37891 21.5469C 2.37891 21.9023 2.43164 22.2402 2.53711 22.5605C 2.64258 22.8809 2.80273 23.1699 3.01758 23.4277C 3.23242 23.6816 3.48242 23.877 3.76758 24.0137C 4.05273 24.1504 4.35742 24.2188 4.68164 24.2188C 5.0957 24.2188 5.45703 24.0977 5.76562 23.8555C 6.07422 23.6133 6.29688 23.2832 6.43359 22.8652L 4.74023 22.8652L 4.74023 21.2598L 8.85352 21.2598L 8.85352 26L 7.10156 26ZM 11.6309 23.3457L 11.6484 23.5273C 11.6914 23.7031 11.7637 23.8574 11.8652 23.9902C 11.9707 24.123 12.0938 24.2344 12.2344 24.3242C 12.375 24.4141 12.5312 24.4824 12.7031 24.5293C 12.875 24.5723 13.0488 24.5938 13.2246 24.5938C 13.4004 24.5938 13.5664 24.584 13.7227 24.5645C 13.8828 24.541 14.0371 24.5117 14.1855 24.4766C 14.334 24.4375 14.4785 24.3945 14.6191 24.3477C 14.7598 24.2969 14.9023 24.2441 15.0469 24.1895L 15.6914 25.3906C 15.4688 25.5273 15.2637 25.6445 15.0762 25.7422C 14.8926 25.8359 14.707 25.9141 14.5195 25.9766C 14.332 26.0391 14.1328 26.084 13.9219 26.1113C 13.7109 26.1426 13.4648 26.1582 13.1836 26.1582C 12.6562 26.1582 12.1875 26.0723 11.7773 25.9004C 11.3672 25.7246 11.0215 25.4883 10.7402 25.1914C 10.4629 24.8945 10.25 24.5469 10.1016 24.1484C 9.95703 23.75 9.88477 23.3281 9.88477 22.8828C 9.88477 22.4375 9.96094 22.0195 10.1133 21.6289C 10.2695 21.2383 10.4883 20.8984 10.7695 20.6094C 11.0508 20.3164 11.3867 20.0859 11.7773 19.918C 12.168 19.75 12.6016 19.666 13.0781 19.666C 13.5547 19.666 13.9766 19.7461 14.3438 19.9062C 14.7148 20.0625 15.0273 20.2812 15.2812 20.5625C 15.5352 20.8398 15.7305 21.168 15.8672 21.5469C 16.0039 21.9219 16.0781 22.3262 16.0898 22.7598C 16.1016 22.8574 16.1074 22.9551 16.1074 23.0527C 16.1113 23.1465 16.1094 23.2441 16.1016 23.3457L 11.6309 23.3457ZM 13.0312 21.1309C 12.8125 21.1309 12.625 21.1582 12.4688 21.2129C 12.3164 21.2637 12.1875 21.3359 12.082 21.4297C 11.9766 21.5195 11.8926 21.623 11.8301 21.7402C 11.7676 21.8574 11.7188 21.9805 11.6836 22.1094L 14.2207 22.1094C 14.1934 21.9766 14.1543 21.8516 14.1035 21.7344C 14.0527 21.6172 13.9824 21.5137 13.8926 21.4238C 13.8027 21.334 13.6875 21.2637 13.5469 21.2129C 13.4102 21.1582 13.2383 21.1309 13.0312 21.1309ZM 22.5117 22.1387L 20.8652 22.1387L 20.8652 21.5117C 20.7051 21.5117 20.5586 21.5234 20.4258 21.5469C 20.293 21.5664 20.1758 21.6016 20.0742 21.6523C 19.9766 21.7031 19.8926 21.7734 19.8223 21.8633C 19.7559 21.9531 19.709 22.0645 19.6816 22.1973L 19.6816 24.3945L 20.918 24.3945L 20.918 26L 16.957 26L 16.957 24.3945L 17.8652 24.3945L 17.8652 21.5352L 16.9688 21.5352L 16.9688 19.9297L 19.6699 19.9297L 19.6699 20.3574C 19.8418 20.2207 20.0352 20.1152 20.25 20.041C 20.4648 19.9668 20.6992 19.9297 20.9531 19.9297C 21.2109 19.9297 21.4766 19.9316 21.75 19.9355C 22.0234 19.9395 22.2773 19.9414 22.5117 19.9414L 22.5117 22.1387ZM 23.5195 19.9297L 26.2969 19.9297L 26.2969 20.457C 26.5469 20.2578 26.8281 20.0996 27.1406 19.9824C 27.4531 19.8652 27.7754 19.8066 28.1074 19.8066C 28.5684 19.8066 28.9629 19.8887 29.291 20.0527C 29.623 20.2129 29.8828 20.459 30.0703 20.791C 30.1992 20.6465 30.3438 20.5156 30.5039 20.3984C 30.668 20.2773 30.8418 20.1738 31.0254 20.0879C 31.209 19.998 31.4004 19.9297 31.5996 19.8828C 31.8027 19.832 32.0098 19.8066 32.2207 19.8066C 32.9629 19.8066 33.5332 20.0117 33.9316 20.4219C 34.3301 20.832 34.5293 21.4316 34.5293 22.2207L 34.5293 24.3945L 35.3906 24.3945L 35.3906 26L 32.6191 26L 32.6191 22.5195C 32.6191 22.1758 32.5293 21.9062 32.3496 21.7109C 32.1738 21.5156 31.9277 21.418 31.6113 21.418C 31.3926 21.418 31.1855 21.4707 30.9902 21.5762C 30.7988 21.6777 30.6074 21.8555 30.416 22.1094C 30.4199 22.1523 30.4219 22.1973 30.4219 22.2441C 30.4219 22.2871 30.4219 22.332 30.4219 22.3789L 30.4219 24.3945L 31.3008 24.3945L 31.3008 26L 28.5293 26L 28.5293 22.5078C 28.5293 22.3438 28.5039 22.1953 28.4531 22.0625C 28.4023 21.9297 28.332 21.8164 28.2422 21.7227C 28.1523 21.6289 28.0449 21.5566 27.9199 21.5059C 27.7988 21.4512 27.6641 21.4219 27.5156 21.418C 27.3203 21.4141 27.1172 21.457 26.9062 21.5469C 26.6992 21.6367 26.5 21.8027 26.3086 22.0449L 26.3086 24.3945L 27.2812 24.3945L 27.2812 26L 23.5078 26L 23.5078 24.3945L 24.4102 24.3945L 24.4102 21.5352L 23.5195 21.5352L 23.5195 19.9297ZM 36.0938 22.9414C 36.0938 22.5 36.1738 22.0859 36.334 21.6992C 36.4941 21.3125 36.7168 20.9746 37.002 20.6855C 37.2871 20.3965 37.627 20.168 38.0215 20C 38.416 19.832 38.8496 19.748 39.3223 19.748C 39.7949 19.748 40.2285 19.832 40.623 20C 41.0215 20.168 41.3633 20.3965 41.6484 20.6855C 41.9336 20.9746 42.1543 21.3125 42.3105 21.6992C 42.4707 22.0859 42.5508 22.5 42.5508 22.9414C 42.5508 23.3828 42.4727 23.7988 42.3164 24.1895C 42.1641 24.5762 41.9453 24.916 41.6602 25.209C 41.3789 25.498 41.0391 25.7266 40.6406 25.8945C 40.2461 26.0625 39.8066 26.1465 39.3223 26.1465C 38.834 26.1465 38.3906 26.0625 37.9922 25.8945C 37.5977 25.7266 37.2598 25.498 36.9785 25.209C 36.6973 24.9199 36.4785 24.582 36.3223 24.1953C 36.1699 23.8047 36.0938 23.3867 36.0938 22.9414ZM 37.8457 22.9414C 37.8457 23.1719 37.8848 23.3848 37.9629 23.5801C 38.041 23.7715 38.1465 23.9375 38.2793 24.0781C 38.416 24.2188 38.5723 24.3281 38.748 24.4062C 38.9277 24.4844 39.1191 24.5234 39.3223 24.5234C 39.5293 24.5234 39.7207 24.4863 39.8965 24.4121C 40.0762 24.334 40.2305 24.2246 40.3594 24.084C 40.4922 23.9434 40.5957 23.7773 40.6699 23.5859C 40.7441 23.3906 40.7812 23.1758 40.7812 22.9414C 40.7812 22.6992 40.7441 22.4805 40.6699 22.2852C 40.5957 22.0898 40.4922 21.9238 40.3594 21.7871C 40.2305 21.6504 40.0762 21.5469 39.8965 21.4766C 39.7207 21.4023 39.5293 21.3672 39.3223 21.3711C 39.1191 21.3672 38.9277 21.4023 38.748 21.4766C 38.5723 21.5469 38.416 21.6504 38.2793 21.7871C 38.1465 21.9238 38.041 22.0898 37.9629 22.2852C 37.8848 22.4805 37.8457 22.6992 37.8457 22.9414ZM 48.4336 22.5078C 48.4336 22.168 48.3438 21.9023 48.1641 21.7109C 47.9844 21.5156 47.7461 21.418 47.4492 21.418C 47.2461 21.418 47.041 21.4629 46.834 21.5527C 46.627 21.6426 46.4258 21.8105 46.2305 22.0566L 46.2305 24.3945L 47.2148 24.3945L 47.2148 26L 43.4414 26L 43.4414 24.3945L 44.332 24.3945L 44.332 21.5352L 43.4531 21.5352L 43.4531 19.9297L 46.2188 19.9297L 46.2188 20.4629C 46.4727 20.2637 46.7559 20.1074 47.0684 19.9941C 47.3848 19.877 47.7168 19.8184 48.0645 19.8184C 48.7949 19.8184 49.3574 20.0234 49.752 20.4336C 50.1465 20.8398 50.3438 21.4355 50.3438 22.2207L 50.3438 24.3945L 51.2051 24.3945L 51.2051 26L 48.4336 26L 48.4336 22.5078ZM 55.5879 16.8828L 58.2422 16.8828L 58.2422 24.3945L 59.4258 24.3945L 59.4258 26L 56.4375 26L 56.4375 25.7656C 56.2266 25.875 56.0098 25.9609 55.7871 26.0234C 55.5684 26.0859 55.3457 26.1172 55.1191 26.1172C 54.6543 26.1172 54.2266 26.0352 53.8359 25.8711C 53.4492 25.7031 53.1152 25.4746 52.834 25.1855C 52.5566 24.8965 52.3398 24.5586 52.1836 24.1719C 52.0273 23.7812 51.9492 23.3633 51.9492 22.918C 51.9492 22.4727 52.0254 22.0586 52.1777 21.6758C 52.334 21.2891 52.5488 20.9531 52.8223 20.668C 53.0996 20.3828 53.4297 20.1582 53.8125 19.9941C 54.1992 19.8301 54.623 19.748 55.084 19.748C 55.3379 19.748 55.5762 19.7734 55.7988 19.8242C 56.0215 19.8711 56.2344 19.9395 56.4375 20.0293L 56.4375 18.4883L 55.5879 18.4883L 55.5879 16.8828ZM 55.2188 24.5C 55.4766 24.4922 55.709 24.4258 55.916 24.3008C 56.127 24.1758 56.3008 24.0117 56.4375 23.8086L 56.4375 22.0215C 56.3008 21.8145 56.123 21.6543 55.9043 21.541C 55.6895 21.4238 55.4609 21.3672 55.2188 21.3711C 55.0156 21.3672 54.8242 21.4023 54.6445 21.4766C 54.4688 21.5508 54.3125 21.6562 54.1758 21.793C 54.043 21.9297 53.9375 22.0938 53.8594 22.2852C 53.7812 22.4766 53.7422 22.6934 53.7422 22.9355C 53.7422 23.1738 53.7812 23.3906 53.8594 23.5859C 53.9375 23.7773 54.043 23.9414 54.1758 24.0781C 54.3125 24.2109 54.4688 24.3125 54.6445 24.3828C 54.8242 24.4531 55.0156 24.4922 55.2188 24.5Z"/>
</defs>
</svg>
